<svg xmlns="http://www.w3.org/2000/svg" viewBox="0 0 353.06 222.38"><defs><style>.a{fill:#9a57cb;}.b{fill:#ae6bad;}.c{font-size:58.99px;font-family:PatuaOne-Regular, Patua One;}.c,.d{fill:#f9b73b;}</style></defs><path class="a" d="M176.53,219.88a110.35,110.35,0,0,1-65.48-21.27l-.65-.49H32.14a8.57,8.57,0,0,1-8.56-8.56V155H2.5V69.25H23.58V33.19a8.58,8.58,0,0,1,8.56-8.57h77.74l.67-.48a111.42,111.42,0,0,1,132,0l.66.48h77.74a8.58,8.58,0,0,1,8.56,8.57V69.25h21.08V155H329.48v34.56a8.57,8.57,0,0,1-8.56,8.56H242.67l-.66.49A110.33,110.33,0,0,1,176.53,219.88Z" transform="translate(0)"/><path class="b" d="M176.53,5A107.74,107.74,0,0,1,241,26.15l1.33,1h78.56A6.07,6.07,0,0,1,327,33.19V71.75h21.08V152.5H327v37.06a6.06,6.06,0,0,1-6.06,6.06H241.85l-1.32,1a108.9,108.9,0,0,1-128,0l-1.32-1H32.14a6.06,6.06,0,0,1-6.06-6.06V152.5H5V71.75H26.08V33.19a6.07,6.07,0,0,1,6.06-6.07h78.57l1.32-1A107.74,107.74,0,0,1,176.53,5m0-5a113.22,113.22,0,0,0-67.47,22.12H32.14A11.07,11.07,0,0,0,21.08,33.19V66.75H0V157.5H21.08v32.06a11.06,11.06,0,0,0,11.06,11.06h77.44a113.87,113.87,0,0,0,133.9,0h77.44A11.06,11.06,0,0,0,332,189.56V157.5h21.08V66.75H332V33.19a11.07,11.07,0,0,0-11.06-11.07H244A113.2,113.2,0,0,0,176.53,0Z" transform="translate(0)"/><text class="c" transform="translate(39.75 130.45) scale(0.91 1)">BunniLogik</text><path class="d" d="M65.39,174.62c-.23,0,.72.11.21,0l-.33-.06-.21,0c-.37-.07.24.06.2.05l-.46-.13-.26-.08c-.37-.11.42.17.06,0-.18-.07-.37-.15-.55-.24s.25.17,0,0l-.31-.19-.23-.15c-.19-.12.18.18,0,0s-.33-.31-.48-.48l-.12-.15s.1.15,0,0a2.61,2.61,0,0,1-.17-.28,3.26,3.26,0,0,1-.25-.61,5.08,5.08,0,0,1,.62-3.4,7.16,7.16,0,0,1,2.37-2.66,8.87,8.87,0,0,1,3.59-1.36l.53-.09c.29,0-.09,0,.21,0s.81-.07,1.22-.09h.68c-.23,0,.13,0,.18,0,.44,0,.87,0,1.31.08l.53.05c-.41,0,.18,0,.28,0,.46.07.91.15,1.37.24l.65.13.27.06c-.08,0-.35-.08,0,0s.88.23,1.32.36a24.58,24.58,0,0,1,2.47.85q1.35.54,2.64,1.17c1.77.88,3.49,1.95,5.19,3,3.7,2.24,7.35,4.56,11,6.79s7.13,4.21,10.86,6c3.45,1.64,7.15,3.24,11.05,2.89a10.12,10.12,0,0,0,7-3.45c1.13-1.39,2.11-3.51,1.28-5.28a3.23,3.23,0,0,0-.79-1,3.76,3.76,0,0,0-2.64-.76c-.44,0-1.59.34-.9,1l.21.2c.07.07.17.24,0,.06a2.57,2.57,0,0,1,.27.52,2.07,2.07,0,0,1,.15,1,5.22,5.22,0,0,1-.89,2.58,8.23,8.23,0,0,1-2.32,2.31,8.5,8.5,0,0,1-1.66.81l-.26.08s.16,0,0,0a4.21,4.21,0,0,1-.48.12l-.49.1-.21,0c.3,0,0,0-.09,0l-.53,0h-.31s.3,0,.1,0-.38,0-.56,0-.38,0,0,0l-.33-.05c-.11,0-.61-.12-.42-.07s-.05,0-.08,0l-.35-.09a8.25,8.25,0,0,1-1-.37c-1.79-.7-3.54-1.52-5.25-2.39-3.68-1.86-7.25-4-10.77-6.2-3.74-2.3-7.44-4.64-11.22-6.86a41.46,41.46,0,0,0-11.42-4.75,25.34,25.34,0,0,0-11-.45,9.52,9.52,0,0,0-6.68,4.49c-1.14,2.1-1.35,4.57.67,6.2a11.21,11.21,0,0,0,5.33,2.15l.79.1c.41,0,1.8,0,1.55-.73s-1.73-.92-2.33-1Z" transform="translate(0)"/><path class="d" d="M287.67,174.62c.23,0-.72.11-.21,0l.34-.06.2,0c.38-.07-.24.06-.2.05l.46-.13.27-.08c.36-.11-.42.17-.07,0,.19-.07.37-.15.56-.24s-.26.17,0,0l.31-.19.22-.15c.19-.12-.18.18,0,0s.33-.31.48-.48l.12-.15s-.1.15,0,0,.11-.18.16-.28a2.7,2.7,0,0,0,.25-.61,5,5,0,0,0-.62-3.4,7.16,7.16,0,0,0-2.37-2.66,8.87,8.87,0,0,0-3.59-1.36l-.53-.09c-.29,0,.09,0-.21,0s-.81-.07-1.21-.09h-.68c.22,0-.14,0-.19,0-.43,0-.87,0-1.3.08l-.54.05c.42,0-.18,0-.28,0l-1.37.24-.64.13-.28.06c.08,0,.35-.08,0,0s-.88.23-1.32.36a24.58,24.58,0,0,0-2.47.85q-1.34.54-2.64,1.17c-1.77.88-3.49,1.95-5.19,3-3.7,2.24-7.34,4.56-11,6.79-3.54,2.14-7.13,4.21-10.86,6-3.44,1.64-7.15,3.24-11.05,2.89a10.16,10.16,0,0,1-7-3.45c-1.13-1.39-2.1-3.51-1.28-5.28a3.54,3.54,0,0,1,.79-1,3.78,3.78,0,0,1,2.64-.76c.44,0,1.59.34.9,1l-.2.2c-.07.07-.18.24-.06.06a2.57,2.57,0,0,0-.27.52,2.07,2.07,0,0,0-.15,1,5.32,5.32,0,0,0,.89,2.58,7.82,7.82,0,0,0,4,3.12l.26.08s-.16,0,0,0a4.21,4.21,0,0,0,.48.12l.49.1.22,0c-.31,0,0,0,.09,0l.52,0h.31s-.3,0-.09,0,.37,0,.55,0,.39,0,0,0l.34-.05c.1,0,.6-.12.41-.07s.05,0,.08,0l.35-.09a7.73,7.73,0,0,0,1-.37c1.79-.7,3.54-1.52,5.26-2.39,3.67-1.86,7.24-4,10.77-6.2,3.73-2.3,7.43-4.64,11.21-6.86A41.59,41.59,0,0,1,276,163.84a25.38,25.38,0,0,1,11-.45,9.56,9.56,0,0,1,6.68,4.49c1.13,2.1,1.34,4.57-.68,6.2a11.21,11.21,0,0,1-5.32,2.15l-.8.1c-.41,0-1.79,0-1.54-.73s1.72-.92,2.32-1Z" transform="translate(0)"/><path class="d" d="M65.39,47.76c-.23,0,.72-.12.21,0l-.33.06-.21,0c-.37.08.24-.06.2,0l-.46.12-.26.08c-.37.11.42-.17.06,0l-.55.24c-.32.14.25-.16,0,0l-.31.18c-.08,0-.15.11-.23.15s.18-.17,0,0-.33.31-.48.48l-.12.14s.1-.14,0,0l-.17.28a3.35,3.35,0,0,0-.25.62,5.05,5.05,0,0,0,.62,3.39A7,7,0,0,0,65.5,56.1a9,9,0,0,0,3.59,1.37l.53.08c.29.05-.09,0,.21,0s.81.07,1.22.08h.86c.44,0,.87,0,1.31-.08l.53-.06c-.41,0,.18,0,.28,0,.46-.06.91-.14,1.37-.23l.65-.14.27-.06h0l1.32-.36a24.57,24.57,0,0,0,2.47-.86q1.35-.53,2.64-1.17c1.77-.87,3.49-1.95,5.19-3,3.7-2.23,7.35-4.55,11-6.79s7.13-4.21,10.86-6c3.45-1.64,7.15-3.24,11.05-2.88a10.08,10.08,0,0,1,7,3.45c1.13,1.39,2.11,3.5,1.28,5.28a3.09,3.09,0,0,1-.79,1,3.77,3.77,0,0,1-2.64.77c-.44,0-1.59-.34-.9-1l.21-.2c.07-.07.17-.24,0-.06a2.65,2.65,0,0,0,.27-.53,2.06,2.06,0,0,0,.15-1,5.18,5.18,0,0,0-.89-2.57,8.14,8.14,0,0,0-2.32-2.32,9.07,9.07,0,0,0-1.66-.8l-.26-.09s.16,0,0,0l-.48-.12-.49-.1-.21,0c.3,0,0,0-.09,0l-.53,0h-.31s.3,0,.1,0l-.56,0c-.1,0-.38.06,0,0l-.33.05-.42.08-.08,0-.35.1a8.25,8.25,0,0,0-1,.37c-1.79.7-3.54,1.51-5.25,2.38-3.68,1.87-7.25,4-10.77,6.21-3.74,2.29-7.44,4.64-11.22,6.85a41.15,41.15,0,0,1-11.42,4.75,25.19,25.19,0,0,1-11,.46,9.55,9.55,0,0,1-6.68-4.49c-1.14-2.11-1.35-4.57.67-6.21a11.19,11.19,0,0,1,5.33-2.14l.79-.1c.41,0,1.8,0,1.55.72s-1.73.93-2.33,1Z" transform="translate(0)"/><path class="d" d="M287.67,47.76c.23,0-.72-.12-.21,0l.34.06.2,0c.38.08-.24-.06-.2,0l.46.12.27.08c.36.11-.42-.17-.07,0l.56.24c.32.14-.26-.16,0,0l.31.18a1.7,1.7,0,0,0,.22.15c.19.12-.18-.17,0,0s.33.31.48.48l.12.14,0,0,.16.28a2.78,2.78,0,0,1,.25.62,5,5,0,0,1-.62,3.39,7,7,0,0,1-2.37,2.66A9,9,0,0,1,284,57.47l-.53.08c-.29.05.09,0-.21,0s-.81.07-1.21.08h-.87c-.43,0-.87,0-1.3-.08l-.54-.06c.42,0-.18,0-.28,0-.45-.06-.91-.14-1.37-.23l-.64-.14-.28-.06h0c-.44-.12-.88-.23-1.32-.36a24.57,24.57,0,0,1-2.47-.86q-1.34-.53-2.64-1.17c-1.77-.87-3.49-1.95-5.19-3-3.7-2.23-7.34-4.55-11-6.79-3.54-2.14-7.13-4.21-10.86-6-3.44-1.64-7.15-3.24-11.05-2.88a10.12,10.12,0,0,0-7,3.45c-1.13,1.39-2.1,3.5-1.28,5.28a3.38,3.38,0,0,0,.79,1,3.78,3.78,0,0,0,2.64.77c.44,0,1.59-.34.9-1l-.2-.2c-.07-.07-.18-.24-.06-.06a2.65,2.65,0,0,1-.27-.53,2.06,2.06,0,0,1-.15-1,5.28,5.28,0,0,1,.89-2.57,8.4,8.4,0,0,1,2.32-2.32,9.07,9.07,0,0,1,1.66-.8l.26-.09s-.16,0,0,0l.48-.12.49-.1.22,0c-.31,0,0,0,.09,0l.52,0h.31s-.3,0-.09,0,.37,0,.55,0,.39.06,0,0l.34.05.41.08.08,0,.35.1a7.73,7.73,0,0,1,1,.37c1.79.7,3.54,1.51,5.26,2.38,3.67,1.87,7.24,4,10.77,6.21,3.73,2.29,7.43,4.64,11.21,6.85A41.28,41.28,0,0,0,276,58.53,25.23,25.23,0,0,0,287,59a9.59,9.59,0,0,0,6.68-4.49c1.13-2.11,1.34-4.57-.68-6.21a11.2,11.2,0,0,0-5.32-2.14l-.8-.1c-.41,0-1.79,0-1.54.72s1.72.93,2.32,1Z" transform="translate(0)"/><path class="d" d="M195.07,201.8a5.15,5.15,0,0,1-1.21-1.72c-.81-2.78-2.73-4.2-5.31-5.29-3.35-1.41-6.54-2.88-10.36-1.83a8.55,8.55,0,0,1-4.43-.12c-4.85-1.4-8.42,1.65-12.3,3.43-1,.45-1.42,2.18-2,3.37-1,1.9-2.14,2.42-3.93,1.62s-1.52-2.27-.89-3.74c.3-.69.55-1.4.93-2.35-.93-.19-1.79-.12-2.21-.51a3.67,3.67,0,0,1-1.27-2.28c0-.55,1-1.34,1.69-1.57a2.84,2.84,0,0,1,2.24.29c2.77,1.9,4.86.07,7.48-1.21-2.85-2-4-4.69-4.85-7.69-.39-1.44-3.34-2-4.72-1.45a3.39,3.39,0,0,1-2.6,0c-.39-.19-.52-1.51-.32-2.2a3.22,3.22,0,0,0-.36-2.89,7.33,7.33,0,0,1-.67-4c.11-1.55,1.3-2.27,2.88-2.17s1.47,1.35,1.48,2.49c0,2.71,1,3.62,3.74,4l4.65-10.62a39.12,39.12,0,0,1-4.89-3.74,53.88,53.88,0,0,1-6-7.1,4,4,0,0,1,.36-5.29c1.65-1.72,3.55-1.17,5.3-.3,4,2,6.62,5.35,8.73,9.06,1.44,2.52,2.53,3.85,6,3.09s7.42,0,11.12.46c1.32.15,1.52-.49,2.06-1.22,2.21-3,4.29-6.15,6.77-8.93a11.88,11.88,0,0,1,4.82-2.92,3.56,3.56,0,0,1,4.71,4.69,14.74,14.74,0,0,1-3.09,5.23,76.51,76.51,0,0,1-6.72,5.83c-.59.49-1.24.89-1.55,1.11l4.65,10.47c2.83-.42,3.64-1.37,3.84-4.24a3,3,0,0,1,.64-1.43,1.21,1.21,0,0,1,1.49-.43c.89.4,1.82.78,2,1.38.36,1.35-.18,3-.38,4.45-.12.88-.33,1.74-.46,2.62s.08,2.17-.34,2.39a3.37,3.37,0,0,1-2.64-.07c-1.51-.66-4.17.2-4.75,1.77-1.76,4.79-1.76,4.79-4.71,7.92,2.37.92,4.27,3.2,7.14,1.23a4.59,4.59,0,0,1,2.07-.37c1.18-.11,2.11.17,2.28,1.58a2,2,0,0,1-1.72,2.48c-.48.11-1,.15-1.7.27.33,2.44,3.27,5.48-1.47,6.81Z" transform="translate(0)"/><path class="d" d="M199.78,26.86c-4.12-4.64-6.51-4.78-11.48-4s-11,5.9-11.77,7.4c-.8-1.5-6.8-6.61-11.76-7.4s-7.36-.66-11.49,4c-4.36,4.91-4.16,11.76-2.53,18.47s6.33,10.87,11.77,14.58,14,14.06,14,14.06,8.58-10.36,14-14.06S200.69,52,202.31,45.33,204.15,31.77,199.78,26.86Z" transform="translate(0)"/><path class="a" d="M176.47,55.46c-1.55,1.53-3.48,2.59-5.68,1.84a6.12,6.12,0,0,1-3.13-2.56c-.16-.25-.87-1.07.37-1.6a1,1,0,0,1,1.38.55,2.53,2.53,0,0,0,3.61,1.2,6.11,6.11,0,0,0,2.39-3.11c.39-1,.08-2.34.08-3.65A14.15,14.15,0,0,1,173,48c-.46-.12-1-.05-1.23-.93A1,1,0,0,1,172.84,46q3.91-.13,7.85,0a1.08,1.08,0,0,1,1,1.08c.2.75-.77.79-1.23.9a15.88,15.88,0,0,1-2.6.16c0,1.51-.29,3,.09,4.27a4.45,4.45,0,0,0,2.2,2.51,2.57,2.57,0,0,0,3.49-1.11c.24-.4.73-1.2,1.68-.62.74.74.34,1.38.12,1.9-.89,2.1-3.78,3-6.23,2A21.61,21.61,0,0,1,176.47,55.46Z" transform="translate(0)"/></svg>